<svg id="Layer_1" data-name="Layer 1" xmlns="http://www.w3.org/2000/svg" viewBox="0 0 387 126"><defs><style>.octalla-logo-svg{fill:#ff5f5f;}.octalla-logo-eyes{fill:#fff;}</style></defs><path class="octalla-logo-svg" d="M174.52,117.21q-11.62,0-18.18-5.68t-6.55-17q0-11.44,6.83-17T174.79,72a43.63,43.63,0,0,1,8.29.69,29.38,29.38,0,0,1,6.83,2.24V85.33a27.47,27.47,0,0,0-12-2.47q-6.42,0-9.76,2.57c-2.23,1.7-3.34,4.76-3.34,9.15q0,6.14,3.12,8.93t9.89,2.8A26.91,26.91,0,0,0,190,103.56v10.9a29.53,29.53,0,0,1-7.1,2.1A50.21,50.21,0,0,1,174.52,117.21Z"/><path class="octalla-logo-svg" d="M215.37,117.21q-8.07,0-11.86-4.13t-3.8-11.35V84.05h-5.87V72.88h5.87V63.81l14.74-3.94v13H225l-.64,11.17h-9.89v16.67q0,3.12,1.56,4.35a7.42,7.42,0,0,0,4.67,1.24,17,17,0,0,0,5.4-.92v10A27.44,27.44,0,0,1,215.37,117.21Z"/><path class="octalla-logo-svg" d="M245.31,117.21a19.77,19.77,0,0,1-7.64-1.47,12.54,12.54,0,0,1-5.64-4.53,13.25,13.25,0,0,1-2.1-7.65q0-6.69,4.53-10.49t13.6-3.8h12.09v-1a5.18,5.18,0,0,0-2.2-4.71q-2.19-1.42-8.24-1.42a47.28,47.28,0,0,0-14.56,2.29V74.89a40.54,40.54,0,0,1,7.83-2.1,55.41,55.41,0,0,1,9.75-.83q10.08,0,15.8,4.12t5.72,13.1v27.11H261.34l-.73-3.66a16.12,16.12,0,0,1-6.09,3.38A30.31,30.31,0,0,1,245.31,117.21Zm4.67-9.07a14.32,14.32,0,0,0,6-1.19,12,12,0,0,0,4.12-3V97.79H249.71c-4.34,0-6.5,1.74-6.5,5.22a4.6,4.6,0,0,0,1.64,3.75Q246.5,108.14,250,108.14Z"/><path class="octalla-logo-svg" d="M296.51,117.21q-7.15,0-10.26-3.12t-3.11-10V54.56h14.74v48.08a3,3,0,0,0,3.48,3.67,14.15,14.15,0,0,0,4.4-.64v10a22.63,22.63,0,0,1-4.17,1.19A30.05,30.05,0,0,1,296.51,117.21Z"/><path class="octalla-logo-svg" d="M322.42,117.21q-7.14,0-10.25-3.12t-3.12-10V54.56H323.8v48.08a3,3,0,0,0,3.48,3.67,14,14,0,0,0,4.39-.64v10a22.32,22.32,0,0,1-4.16,1.19A30.18,30.18,0,0,1,322.42,117.21Z"/><path class="octalla-logo-svg" d="M350.82,117.21a19.86,19.86,0,0,1-7.65-1.47,12.51,12.51,0,0,1-5.63-4.53,13.18,13.18,0,0,1-2.11-7.65q0-6.69,4.53-10.49t13.6-3.8h12.09v-1a5.18,5.18,0,0,0-2.2-4.71q-2.19-1.42-8.24-1.42a47.33,47.33,0,0,0-14.56,2.29V74.89a40.94,40.94,0,0,1,7.83-2.1,55.41,55.41,0,0,1,9.75-.83q10.08,0,15.8,4.12t5.73,13.1v27.11H366.84l-.73-3.66A16.12,16.12,0,0,1,360,116,30.24,30.24,0,0,1,350.82,117.21Zm4.67-9.07a14.27,14.27,0,0,0,6-1.19,12,12,0,0,0,4.12-3V97.79H355.21q-6.49,0-6.5,5.22a4.6,4.6,0,0,0,1.65,3.75Q352,108.14,355.49,108.14Z"/><path class="octalla-logo-svg" d="M75.62,121.5c-20.28,0-35.59-3.25-46.81-9.93C14.75,103.2,7.62,89.72,7.62,71.5a68,68,0,0,1,136,0c0,18.22-7.12,31.7-21.18,40.07C111.22,118.25,95.91,121.5,75.62,121.5Z"/><ellipse class="octalla-logo-eyes" cx="58.36" cy="83.93" rx="4.36" ry="5.93"/><ellipse class="octalla-logo-eyes" cx="93.89" cy="83.93" rx="4.36" ry="5.93"/></svg>