<svg id="Layer_1" data-name="Layer 1" xmlns="http://www.w3.org/2000/svg" viewBox="0 0 387 219"><defs><style>.octalla-logo-svg{fill:#ff5f5f;}.octalla-logo-eyes{fill:#fff;}</style></defs><path class="octalla-logo-svg" d="M174.52,118.21q-11.62,0-18.18-5.68t-6.55-17q0-11.44,6.83-17T174.79,73a43.63,43.63,0,0,1,8.29.69,29.38,29.38,0,0,1,6.83,2.24V86.33a27.47,27.47,0,0,0-12-2.47q-6.42,0-9.76,2.57t-3.34,9.15q0,6.14,3.12,8.93t9.89,2.8A26.91,26.91,0,0,0,190,104.56v10.9a29.53,29.53,0,0,1-7.1,2.1A50.21,50.21,0,0,1,174.52,118.21Z"/><path class="octalla-logo-svg" d="M215.37,118.21q-8.07,0-11.86-4.13t-3.8-11.35V85.05h-5.87V73.88h5.87V64.81l14.74-3.94v13H225l-.64,11.17h-9.89v16.67q0,3.12,1.56,4.35a7.42,7.42,0,0,0,4.67,1.24,17,17,0,0,0,5.4-.92v10A27.44,27.44,0,0,1,215.37,118.21Z"/><path class="octalla-logo-svg" d="M245.31,118.21a19.59,19.59,0,0,1-7.64-1.47,12.54,12.54,0,0,1-5.64-4.53,13.25,13.25,0,0,1-2.1-7.65q0-6.69,4.53-10.49t13.6-3.8h12.09v-1a5.18,5.18,0,0,0-2.2-4.71q-2.19-1.42-8.24-1.42a47.28,47.28,0,0,0-14.56,2.29V75.89a40.54,40.54,0,0,1,7.83-2.1,55.41,55.41,0,0,1,9.75-.83q10.08,0,15.8,4.12t5.72,13.1v27.11H261.34l-.73-3.66a16.12,16.12,0,0,1-6.09,3.38A30.31,30.31,0,0,1,245.31,118.21Zm4.67-9.07a14.32,14.32,0,0,0,6-1.19,12,12,0,0,0,4.12-3V98.79H249.71c-4.34,0-6.5,1.74-6.5,5.22a4.6,4.6,0,0,0,1.64,3.75Q246.5,109.14,250,109.14Z"/><path class="octalla-logo-svg" d="M296.51,118.21q-7.15,0-10.26-3.12t-3.11-10V55.56h14.74v48.08a3,3,0,0,0,3.48,3.67,14.15,14.15,0,0,0,4.4-.64v10a22.63,22.63,0,0,1-4.17,1.19A30.05,30.05,0,0,1,296.51,118.21Z"/><path class="octalla-logo-svg" d="M322.42,118.21q-7.14,0-10.25-3.12t-3.12-10V55.56H323.8v48.08a3,3,0,0,0,3.48,3.67,14,14,0,0,0,4.39-.64v10a22.32,22.32,0,0,1-4.16,1.19A30.18,30.18,0,0,1,322.42,118.21Z"/><path class="octalla-logo-svg" d="M350.82,118.21a19.68,19.68,0,0,1-7.65-1.47,12.51,12.51,0,0,1-5.63-4.53,13.18,13.18,0,0,1-2.11-7.65q0-6.69,4.53-10.49t13.6-3.8h12.09v-1a5.18,5.18,0,0,0-2.2-4.71q-2.19-1.42-8.24-1.42a47.33,47.33,0,0,0-14.56,2.29V75.89a40.94,40.94,0,0,1,7.83-2.1,55.41,55.41,0,0,1,9.75-.83q10.08,0,15.8,4.12t5.73,13.1v27.11H366.84l-.73-3.66A16.12,16.12,0,0,1,360,117,30.24,30.24,0,0,1,350.82,118.21Zm4.67-9.07a14.27,14.27,0,0,0,6-1.19,12,12,0,0,0,4.12-3V98.79H355.21q-6.49,0-6.5,5.22a4.6,4.6,0,0,0,1.65,3.75Q352,109.14,355.49,109.14Z"/><path class="octalla-logo-svg" d="M75.62,122.5c-20.28,0-35.59-3.25-46.81-9.93C14.75,104.2,7.62,90.72,7.62,72.5a68,68,0,0,1,136,0c0,18.22-7.12,31.7-21.18,40.07C111.22,119.25,95.91,122.5,75.62,122.5Z"/><ellipse class="octalla-logo-eyes" cx="58.36" cy="84.93" rx="4.36" ry="5.93"/><ellipse class="octalla-logo-eyes" cx="93.89" cy="84.93" rx="4.36" ry="5.93"/><path class="octalla-logo-svg" d="M37.47,171a15.35,15.35,0,0,1-7.59-2.07,15.69,15.69,0,0,1-7.5-9.78,4,4,0,0,1,7.74-2A7.79,7.79,0,0,0,33.85,162a6.75,6.75,0,0,0,5,.83,6.1,6.1,0,0,0,4-5.29V130a4,4,0,0,1,8,0v28.07a14.07,14.07,0,0,1-9.75,12.42A13.19,13.19,0,0,1,37.47,171Z"/><path class="octalla-logo-svg" d="M44.2,211.5a29.63,29.63,0,0,1-28.15-21.79,5.5,5.5,0,0,1,10.65-2.78A18,18,0,0,0,35.37,198a16.72,16.72,0,0,0,12.5,2c5.37-1.52,9.36-6.67,10-12.84V132a5.5,5.5,0,0,1,11,0v55.68l0,.24c-1,10.78-8.19,19.89-18,22.67A24.47,24.47,0,0,1,44.2,211.5Z"/><path class="octalla-logo-svg" d="M111.78,171a13.19,13.19,0,0,1-3.65-.51,14.07,14.07,0,0,1-9.75-12.42V130a4,4,0,0,1,8,0v27.52a6.1,6.1,0,0,0,4,5.29,6.75,6.75,0,0,0,5-.83,7.79,7.79,0,0,0,3.73-4.82,4,4,0,0,1,7.74,2,15.69,15.69,0,0,1-7.5,9.78A15.35,15.35,0,0,1,111.78,171Z"/><path class="octalla-logo-svg" d="M105.05,211.5a24.47,24.47,0,0,1-6.68-.91c-9.78-2.78-17-11.89-18-22.67l0-.49V132a5.5,5.5,0,0,1,11,0v55.17c.65,6.17,4.64,11.32,10,12.84a16.72,16.72,0,0,0,12.5-2,18,18,0,0,0,8.67-11.11,5.5,5.5,0,0,1,10.65,2.78,29.63,29.63,0,0,1-28.15,21.79Z"/></svg>